<?xml version="1.0" encoding="utf-8"?>
<!-- Generator: Adobe Illustrator 27.3.1, SVG Export Plug-In . SVG Version: 6.00 Build 0)  -->
<svg version="1.1" id="Layer_1" xmlns="http://www.w3.org/2000/svg" xmlns:xlink="http://www.w3.org/1999/xlink" x="0px" y="0px"
	 viewBox="0 0 850.39 850.39" style="enable-background:new 0 0 850.39 850.39;" xml:space="preserve">
<style type="text/css">
	.st0{fill:#FDF2EF;}
	.st1{fill:url(#SVGID_1_);}
	.st2{fill:url(#SVGID_00000004546499268134893400000010998548279722175623_);}
	.st3{fill:url(#SVGID_00000025435209104177624280000002499866752565949874_);}
	.st4{fill:url(#SVGID_00000039096908812096742780000007087244974637138095_);}
	.st5{fill:url(#SVGID_00000142867749328334597990000007183009030204377261_);}
	.st6{fill:url(#SVGID_00000014610159317059204430000006044686524794594492_);}
	.st7{fill:#FFFFFF;}
	.st8{fill:url(#SVGID_00000067231561263399728080000015654611806683736706_);}
	.st9{fill:url(#SVGID_00000109030753138830935940000006651177686560172722_);}
	.st10{fill:url(#SVGID_00000018934958561146592850000009073956227873345194_);}
	.st11{fill:url(#SVGID_00000078762856351941687490000012065125987559484327_);}
	.st12{fill:url(#SVGID_00000043423251507510930410000005810911304313511612_);}
	.st13{fill:url(#SVGID_00000145047971335145899320000005848532974048642955_);}
	.st14{fill:url(#SVGID_00000008870840638819805840000005681096439427603110_);}
	.st15{fill:url(#SVGID_00000054264186453607465480000011951098784159010491_);}
</style>
<rect width="850.39" height="850.39"/>
<g>
	<g>
		<path class="st0" d="M224.94,470.01l3.22,9.66l3.24-9.66h0.93l3.27,9.66l3.19-9.66h1.65l-4.09,11.69h-1.45l-3.04-8.74l-3.02,8.74
			h-1.47l-4.07-11.69H224.94z"/>
		<path class="st0" d="M256.37,476.42h-6.67v5.27h-1.45v-11.67h1.45v5.05h6.67v-5.05h1.45v11.67h-1.45V476.42z"/>
		<path class="st0" d="M266.75,470.01h8.21v1.33h-6.77V475h6.49v1.35h-6.49v3.95h7.04v1.38h-8.47V470.01z"/>
		<path class="st0" d="M287.72,477.48h-2.84v4.2h-1.45v-11.67h5.3c1.25,0,2.22,0.37,2.91,1.1c0.7,0.73,1.04,1.61,1.04,2.64
			c0.01,0.96-0.26,1.78-0.82,2.46c-0.56,0.68-1.4,1.07-2.54,1.16l3.85,4.32h-1.83L287.72,477.48z M290.58,475.51
			c0.44-0.45,0.66-1.03,0.66-1.73c0.01-0.64-0.21-1.22-0.65-1.72c-0.44-0.5-1.06-0.75-1.85-0.75h-3.85v4.87h3.79
			C289.51,476.18,290.14,475.96,290.58,475.51z"/>
		<path class="st0" d="M301.14,470.01h8.21v1.33h-6.77V475h6.49v1.35h-6.49v3.95h7.04v1.38h-8.47V470.01z"/>
		<path class="st0" d="M326.16,471.31v-1.3h9.41v1.3h-3.99v10.37h-1.43v-10.37H326.16z"/>
		<path class="st0" d="M351.35,476.42h-6.67v5.27h-1.45v-11.67h1.45v5.05h6.67v-5.05h1.45v11.67h-1.45V476.42z"/>
		<path class="st0" d="M361.74,470.01h8.21v1.33h-6.77V475h6.49v1.35h-6.49v3.95h7.04v1.38h-8.47V470.01z"/>
		<path class="st0" d="M396.63,470.01v1.38h-6.65v4.07h6.37v1.35h-6.37v4.89h-1.45v-11.69H396.63z"/>
		<path class="st0" d="M414.18,470.03v7c0,1.55-0.45,2.74-1.36,3.59s-2.03,1.28-3.38,1.28c-1.33,0-2.47-0.42-3.39-1.27
			c-0.93-0.84-1.39-2.05-1.39-3.6v-7h1.43v7c0,1.11,0.32,1.98,0.97,2.6c0.65,0.62,1.44,0.93,2.38,0.93c0.95,0,1.73-0.32,2.36-0.95
			c0.63-0.63,0.94-1.5,0.94-2.6v-7h1.42L414.18,470.03z"/>
		<path class="st0" d="M424,470.01l7.15,8.94v-8.94h1.43v11.67h-1l-7.17-8.91v8.91h-1.43v-11.67H424z"/>
		<path class="st0" d="M452.64,470.01l7.16,8.94v-8.94h1.43v11.67h-1l-7.17-8.91v8.91h-1.43v-11.67H452.64z"/>
		<path class="st0" d="M470.16,470.01h8.21v1.33h-6.77V475h6.49v1.35h-6.49v3.95h7.04v1.38h-8.47V470.01z"/>
		<path class="st0" d="M487.24,470.01l3.99,9.97l4.02-9.97h1.6l-4.82,11.71h-1.57l-4.84-11.71H487.24z"/>
		<path class="st0" d="M504.58,470.01h8.21v1.33h-6.77V475h6.49v1.35h-6.49v3.95h7.04v1.38h-8.47V470.01z"/>
		<path class="st0" d="M525.55,477.48h-2.83v4.2h-1.45v-11.67h5.3c1.25,0,2.22,0.37,2.91,1.1c0.7,0.73,1.04,1.61,1.04,2.64
			c0.01,0.96-0.26,1.78-0.82,2.46s-1.4,1.07-2.54,1.16l3.85,4.32h-1.83L525.55,477.48z M528.41,475.51
			c0.44-0.45,0.66-1.03,0.66-1.73c0.01-0.64-0.21-1.22-0.65-1.72c-0.45-0.5-1.06-0.75-1.85-0.75h-3.85v4.87h3.79
			C527.34,476.18,527.98,475.96,528.41,475.51z"/>
		<path class="st0" d="M555.04,471.45c-0.6-0.25-1.25-0.38-1.93-0.39c-0.83,0-1.55,0.17-2.16,0.51c-0.61,0.34-0.91,0.84-0.91,1.49
			c0,0.3,0.08,0.56,0.23,0.78c0.16,0.22,0.39,0.41,0.72,0.55s0.65,0.26,0.98,0.34s0.74,0.16,1.24,0.24c0.58,0.09,1.04,0.17,1.4,0.25
			c0.36,0.08,0.76,0.2,1.23,0.38c0.46,0.17,0.82,0.37,1.08,0.59c0.26,0.22,0.48,0.53,0.66,0.91c0.18,0.38,0.27,0.83,0.27,1.34
			c0,0.62-0.14,1.17-0.42,1.63c-0.28,0.47-0.66,0.83-1.13,1.08c-0.47,0.25-0.98,0.44-1.51,0.57c-0.53,0.12-1.09,0.18-1.68,0.18
			c-1.11,0-2.11-0.22-2.99-0.66c-0.88-0.44-1.53-1.12-1.95-2.04l1.2-0.7c0.36,0.66,0.88,1.16,1.58,1.52
			c0.7,0.36,1.42,0.53,2.18,0.53c0.39,0,0.76-0.03,1.13-0.1c0.36-0.07,0.71-0.18,1.05-0.33c0.34-0.16,0.61-0.38,0.82-0.68
			c0.21-0.29,0.31-0.65,0.31-1.06c0-0.34-0.09-0.65-0.26-0.9c-0.17-0.25-0.43-0.46-0.78-0.62c-0.34-0.16-0.69-0.28-1.04-0.37
			c-0.35-0.09-0.78-0.17-1.29-0.25c-0.53-0.08-0.98-0.16-1.34-0.24s-0.75-0.21-1.18-0.37s-0.76-0.35-1.02-0.57s-0.47-0.5-0.64-0.85
			c-0.17-0.35-0.26-0.75-0.26-1.21c-0.01-0.58,0.12-1.09,0.39-1.53s0.63-0.78,1.08-1.03c0.45-0.24,0.93-0.42,1.43-0.54
			c0.51-0.12,1.03-0.17,1.56-0.17c1,0,1.87,0.15,2.6,0.45c0.73,0.3,1.34,0.86,1.82,1.67l-1.1,0.68
			C556.1,472.07,555.65,471.7,555.04,471.45z"/>
		<path class="st0" d="M564.71,471.31v-1.3h9.41v1.3h-3.99v10.37h-1.43v-10.37H564.71z"/>
		<path class="st0" d="M590.95,471.61c1.04,1.19,1.55,2.61,1.54,4.27c0,0.78-0.12,1.52-0.38,2.23c-0.25,0.71-0.61,1.35-1.08,1.93
			c-0.47,0.57-1.09,1.03-1.86,1.37c-0.77,0.34-1.63,0.51-2.6,0.51c-0.97,0-1.84-0.17-2.61-0.51s-1.4-0.79-1.87-1.37
			c-0.47-0.57-0.83-1.21-1.08-1.92s-0.38-1.45-0.38-2.24c0-1.73,0.54-3.18,1.63-4.34c1.08-1.16,2.53-1.74,4.33-1.74
			C588.45,469.82,589.91,470.42,590.95,471.61z M590.59,473.61c-0.31-0.7-0.81-1.28-1.51-1.74c-0.7-0.47-1.53-0.71-2.49-0.72
			c-1.42,0-2.53,0.45-3.32,1.36c-0.79,0.91-1.18,2.03-1.18,3.38c0,1.29,0.39,2.39,1.17,3.3c0.78,0.91,1.89,1.37,3.34,1.37
			c1.43,0,2.54-0.46,3.3-1.38c0.77-0.92,1.15-2.02,1.15-3.29C591.05,475.06,590.9,474.3,590.59,473.61z"/>
		<path class="st0" d="M602.12,481.69h-1.43v-11.67h5.3c0.73,0,1.39,0.14,1.97,0.43s1.02,0.67,1.32,1.13
			c0.3,0.47,0.52,0.98,0.66,1.54s0.14,1.12,0,1.68s-0.36,1.07-0.66,1.53c-0.3,0.46-0.74,0.84-1.32,1.13
			c-0.58,0.29-1.23,0.44-1.97,0.44h-3.87V481.69z M607.41,476.18c0.41-0.26,0.7-0.58,0.88-0.97c0.18-0.39,0.27-0.81,0.27-1.25
			c0-0.45-0.09-0.86-0.27-1.25c-0.18-0.39-0.47-0.71-0.88-0.97c-0.41-0.25-0.88-0.38-1.43-0.38h-3.87v5.2h3.87
			C606.53,476.57,607.01,476.44,607.41,476.18z"/>
		<path class="st0" d="M623.89,471.45c-0.6-0.25-1.25-0.38-1.93-0.39c-0.83,0-1.55,0.17-2.16,0.51c-0.61,0.34-0.91,0.84-0.91,1.49
			c0,0.3,0.08,0.56,0.23,0.78c0.16,0.22,0.39,0.41,0.72,0.55s0.65,0.26,0.98,0.34s0.74,0.16,1.24,0.24c0.58,0.09,1.04,0.17,1.4,0.25
			c0.36,0.08,0.76,0.2,1.23,0.38c0.46,0.17,0.82,0.37,1.08,0.59c0.26,0.22,0.48,0.53,0.66,0.91c0.18,0.38,0.27,0.83,0.27,1.34
			c0,0.62-0.14,1.17-0.42,1.63c-0.28,0.47-0.66,0.83-1.13,1.08c-0.47,0.25-0.98,0.44-1.51,0.57c-0.53,0.12-1.09,0.18-1.68,0.18
			c-1.11,0-2.11-0.22-2.99-0.66c-0.88-0.44-1.53-1.12-1.95-2.04l1.2-0.7c0.36,0.66,0.88,1.16,1.58,1.52
			c0.7,0.36,1.42,0.53,2.18,0.53c0.39,0,0.76-0.03,1.13-0.1c0.36-0.07,0.71-0.18,1.05-0.33c0.34-0.16,0.61-0.38,0.82-0.68
			c0.21-0.29,0.31-0.65,0.31-1.06c0-0.34-0.09-0.65-0.26-0.9c-0.17-0.25-0.43-0.46-0.78-0.62c-0.34-0.16-0.69-0.28-1.04-0.37
			c-0.35-0.09-0.78-0.17-1.29-0.25c-0.53-0.08-0.98-0.16-1.34-0.24s-0.75-0.21-1.18-0.37s-0.76-0.35-1.02-0.57s-0.47-0.5-0.64-0.85
			c-0.17-0.35-0.26-0.75-0.26-1.21c-0.01-0.58,0.12-1.09,0.39-1.53s0.63-0.78,1.08-1.03c0.45-0.24,0.93-0.42,1.43-0.54
			c0.51-0.12,1.03-0.17,1.56-0.17c1,0,1.87,0.15,2.6,0.45c0.73,0.3,1.34,0.86,1.82,1.67l-1.1,0.68
			C624.94,472.07,624.49,471.7,623.89,471.45z"/>
	</g>
	<g>
		<linearGradient id="SVGID_1_" gradientUnits="userSpaceOnUse" x1="190.509" y1="412.4703" x2="551.1067" y2="412.4703">
			<stop  offset="0" style="stop-color:#FF0000"/>
			<stop  offset="0.0273" style="stop-color:#FF1C0B"/>
			<stop  offset="0.1094" style="stop-color:#FF6D2B"/>
			<stop  offset="0.1471" style="stop-color:#FF8D37"/>
			<stop  offset="0.1582" style="stop-color:#FF9637"/>
			<stop  offset="0.2329" style="stop-color:#FFCF38"/>
			<stop  offset="0.2884" style="stop-color:#FFF238"/>
			<stop  offset="0.3182" style="stop-color:#FFFF38"/>
			<stop  offset="0.3516" style="stop-color:#D6F138"/>
			<stop  offset="0.3965" style="stop-color:#A6E038"/>
			<stop  offset="0.4361" style="stop-color:#82D338"/>
			<stop  offset="0.4683" style="stop-color:#6DCC38"/>
			<stop  offset="0.4893" style="stop-color:#65C938"/>
			<stop  offset="0.5033" style="stop-color:#61C050"/>
			<stop  offset="0.5369" style="stop-color:#59AE85"/>
			<stop  offset="0.57" style="stop-color:#529FB1"/>
			<stop  offset="0.6016" style="stop-color:#4C93D3"/>
			<stop  offset="0.6315" style="stop-color:#488AEB"/>
			<stop  offset="0.659" style="stop-color:#4685FA"/>
			<stop  offset="0.6818" style="stop-color:#4583FF"/>
			<stop  offset="0.6956" style="stop-color:#4771F3"/>
			<stop  offset="0.7267" style="stop-color:#4C4FDD"/>
			<stop  offset="0.7584" style="stop-color:#4F34CB"/>
			<stop  offset="0.7905" style="stop-color:#5221BF"/>
			<stop  offset="0.8235" style="stop-color:#5416B7"/>
			<stop  offset="0.8583" style="stop-color:#5412B5"/>
			<stop  offset="0.8611" style="stop-color:#5C11B4"/>
			<stop  offset="0.8772" style="stop-color:#870DB2"/>
			<stop  offset="0.8942" style="stop-color:#AC09AF"/>
			<stop  offset="0.9118" style="stop-color:#CA06AD"/>
			<stop  offset="0.9303" style="stop-color:#E203AC"/>
			<stop  offset="0.9501" style="stop-color:#F201AB"/>
			<stop  offset="0.9719" style="stop-color:#FC00AA"/>
			<stop  offset="1" style="stop-color:#FF00AA"/>
		</linearGradient>
		<path class="st1" d="M535.12,398.49h-52c-2.24,0-4.05,1.81-4.05,4.05v19.86c0,2.24,1.81,4.05,4.05,4.05h17.34v-3.03
			c0-1.51,1.23-2.74,2.74-2.74h11.85c1.51,0,2.74,1.23,2.74,2.74v3.03h17.34c2.24,0,4.05-1.81,4.05-4.05v-19.86
			C539.17,400.3,537.36,398.49,535.12,398.49z"/>
		
			<linearGradient id="SVGID_00000126299024886612079450000003071342636225228967_" gradientUnits="userSpaceOnUse" x1="190.509" y1="411.4056" x2="551.0871" y2="411.4056">
			<stop  offset="0" style="stop-color:#FF0000"/>
			<stop  offset="0.0273" style="stop-color:#FF1C0B"/>
			<stop  offset="0.1094" style="stop-color:#FF6D2B"/>
			<stop  offset="0.1471" style="stop-color:#FF8D37"/>
			<stop  offset="0.1582" style="stop-color:#FF9637"/>
			<stop  offset="0.2329" style="stop-color:#FFCF38"/>
			<stop  offset="0.2884" style="stop-color:#FFF238"/>
			<stop  offset="0.3182" style="stop-color:#FFFF38"/>
			<stop  offset="0.3516" style="stop-color:#D6F138"/>
			<stop  offset="0.3965" style="stop-color:#A6E038"/>
			<stop  offset="0.4361" style="stop-color:#82D338"/>
			<stop  offset="0.4683" style="stop-color:#6DCC38"/>
			<stop  offset="0.4893" style="stop-color:#65C938"/>
			<stop  offset="0.5033" style="stop-color:#61C050"/>
			<stop  offset="0.5369" style="stop-color:#59AE85"/>
			<stop  offset="0.57" style="stop-color:#529FB1"/>
			<stop  offset="0.6016" style="stop-color:#4C93D3"/>
			<stop  offset="0.6315" style="stop-color:#488AEB"/>
			<stop  offset="0.659" style="stop-color:#4685FA"/>
			<stop  offset="0.6818" style="stop-color:#4583FF"/>
			<stop  offset="0.6956" style="stop-color:#4771F3"/>
			<stop  offset="0.7267" style="stop-color:#4C4FDD"/>
			<stop  offset="0.7584" style="stop-color:#4F34CB"/>
			<stop  offset="0.7905" style="stop-color:#5221BF"/>
			<stop  offset="0.8235" style="stop-color:#5416B7"/>
			<stop  offset="0.8583" style="stop-color:#5412B5"/>
			<stop  offset="0.8611" style="stop-color:#5C11B4"/>
			<stop  offset="0.8772" style="stop-color:#870DB2"/>
			<stop  offset="0.8942" style="stop-color:#AC09AF"/>
			<stop  offset="0.9118" style="stop-color:#CA06AD"/>
			<stop  offset="0.9303" style="stop-color:#E203AC"/>
			<stop  offset="0.9501" style="stop-color:#F201AB"/>
			<stop  offset="0.9719" style="stop-color:#FC00AA"/>
			<stop  offset="1" style="stop-color:#FF00AA"/>
		</linearGradient>
		<path style="fill:url(#SVGID_00000126299024886612079450000003071342636225228967_);" d="M509.27,369
			c-23.38,0-42.41,19.02-42.41,42.41c0,23.38,19.02,42.41,42.41,42.41c23.38,0,42.41-19.02,42.41-42.41
			C551.68,388.02,532.65,369,509.27,369z M509.27,450c-21.28,0-38.59-17.31-38.59-38.59c0-21.28,17.31-38.59,38.59-38.59
			c21.28,0,38.59,17.31,38.59,38.59C547.86,432.69,530.55,450,509.27,450z"/>
		
			<linearGradient id="SVGID_00000042723580079959920550000009287792498421907119_" gradientUnits="userSpaceOnUse" x1="190.509" y1="411.4055" x2="551.0871" y2="411.4055">
			<stop  offset="0" style="stop-color:#FF0000"/>
			<stop  offset="0.0273" style="stop-color:#FF1C0B"/>
			<stop  offset="0.1094" style="stop-color:#FF6D2B"/>
			<stop  offset="0.1471" style="stop-color:#FF8D37"/>
			<stop  offset="0.1582" style="stop-color:#FF9637"/>
			<stop  offset="0.2329" style="stop-color:#FFCF38"/>
			<stop  offset="0.2884" style="stop-color:#FFF238"/>
			<stop  offset="0.3182" style="stop-color:#FFFF38"/>
			<stop  offset="0.3516" style="stop-color:#D6F138"/>
			<stop  offset="0.3965" style="stop-color:#A6E038"/>
			<stop  offset="0.4361" style="stop-color:#82D338"/>
			<stop  offset="0.4683" style="stop-color:#6DCC38"/>
			<stop  offset="0.4893" style="stop-color:#65C938"/>
			<stop  offset="0.5033" style="stop-color:#61C050"/>
			<stop  offset="0.5369" style="stop-color:#59AE85"/>
			<stop  offset="0.57" style="stop-color:#529FB1"/>
			<stop  offset="0.6016" style="stop-color:#4C93D3"/>
			<stop  offset="0.6315" style="stop-color:#488AEB"/>
			<stop  offset="0.659" style="stop-color:#4685FA"/>
			<stop  offset="0.6818" style="stop-color:#4583FF"/>
			<stop  offset="0.6956" style="stop-color:#4771F3"/>
			<stop  offset="0.7267" style="stop-color:#4C4FDD"/>
			<stop  offset="0.7584" style="stop-color:#4F34CB"/>
			<stop  offset="0.7905" style="stop-color:#5221BF"/>
			<stop  offset="0.8235" style="stop-color:#5416B7"/>
			<stop  offset="0.8583" style="stop-color:#5412B5"/>
			<stop  offset="0.8611" style="stop-color:#5C11B4"/>
			<stop  offset="0.8772" style="stop-color:#870DB2"/>
			<stop  offset="0.8942" style="stop-color:#AC09AF"/>
			<stop  offset="0.9118" style="stop-color:#CA06AD"/>
			<stop  offset="0.9303" style="stop-color:#E203AC"/>
			<stop  offset="0.9501" style="stop-color:#F201AB"/>
			<stop  offset="0.9719" style="stop-color:#FC00AA"/>
			<stop  offset="1" style="stop-color:#FF00AA"/>
		</linearGradient>
		<path style="fill:url(#SVGID_00000042723580079959920550000009287792498421907119_);" d="M556.65,369.06v84.68h24.39v-34.96
			c4.4,0,14.87,0,14.87,0l1.91,0v-16.11l-33.35-33.62H556.65z M593.99,414.97c-3.46,0-10.7,0-13.61,0c0,0,0,0,0,0
			c-0.85,0-1.64,0.33-2.24,0.93c-0.59,0.6-0.92,1.39-0.92,2.24v31.79h-16.76v-77.05h2.41l31.12,31.37V414.97z"/>
		
			<linearGradient id="SVGID_00000109017612829592458930000007974660286489593766_" gradientUnits="userSpaceOnUse" x1="190.509" y1="411.4055" x2="551.0871" y2="411.4055">
			<stop  offset="0" style="stop-color:#FF0000"/>
			<stop  offset="0.0273" style="stop-color:#FF1C0B"/>
			<stop  offset="0.1094" style="stop-color:#FF6D2B"/>
			<stop  offset="0.1471" style="stop-color:#FF8D37"/>
			<stop  offset="0.1582" style="stop-color:#FF9637"/>
			<stop  offset="0.2329" style="stop-color:#FFCF38"/>
			<stop  offset="0.2884" style="stop-color:#FFF238"/>
			<stop  offset="0.3182" style="stop-color:#FFFF38"/>
			<stop  offset="0.3516" style="stop-color:#D6F138"/>
			<stop  offset="0.3965" style="stop-color:#A6E038"/>
			<stop  offset="0.4361" style="stop-color:#82D338"/>
			<stop  offset="0.4683" style="stop-color:#6DCC38"/>
			<stop  offset="0.4893" style="stop-color:#65C938"/>
			<stop  offset="0.5033" style="stop-color:#61C050"/>
			<stop  offset="0.5369" style="stop-color:#59AE85"/>
			<stop  offset="0.57" style="stop-color:#529FB1"/>
			<stop  offset="0.6016" style="stop-color:#4C93D3"/>
			<stop  offset="0.6315" style="stop-color:#488AEB"/>
			<stop  offset="0.659" style="stop-color:#4685FA"/>
			<stop  offset="0.6818" style="stop-color:#4583FF"/>
			<stop  offset="0.6956" style="stop-color:#4771F3"/>
			<stop  offset="0.7267" style="stop-color:#4C4FDD"/>
			<stop  offset="0.7584" style="stop-color:#4F34CB"/>
			<stop  offset="0.7905" style="stop-color:#5221BF"/>
			<stop  offset="0.8235" style="stop-color:#5416B7"/>
			<stop  offset="0.8583" style="stop-color:#5412B5"/>
			<stop  offset="0.8611" style="stop-color:#5C11B4"/>
			<stop  offset="0.8772" style="stop-color:#870DB2"/>
			<stop  offset="0.8942" style="stop-color:#AC09AF"/>
			<stop  offset="0.9118" style="stop-color:#CA06AD"/>
			<stop  offset="0.9303" style="stop-color:#E203AC"/>
			<stop  offset="0.9501" style="stop-color:#F201AB"/>
			<stop  offset="0.9719" style="stop-color:#FC00AA"/>
			<stop  offset="1" style="stop-color:#FF00AA"/>
		</linearGradient>
		<path style="fill:url(#SVGID_00000109017612829592458930000007974660286489593766_);" d="M616.21,404.02c-4.4,0-14.87,0-14.87,0
			l-1.91,0v16.11l33.35,33.62h7.81v-84.68h-24.39V404.02z M616.92,407.84c0.83,0,1.62-0.33,2.2-0.92c0.58-0.59,0.91-1.37,0.91-2.2
			v-31.84h16.76v77.05h-2.41l-31.12-31.37v-10.72C606.74,407.84,614.04,407.84,616.92,407.84
			C616.92,407.84,616.92,407.84,616.92,407.84z"/>
		
			<linearGradient id="SVGID_00000026875771388365792290000009391521710048701850_" gradientUnits="userSpaceOnUse" x1="190.509" y1="381.1733" x2="551.0871" y2="381.1733">
			<stop  offset="0" style="stop-color:#FF0000"/>
			<stop  offset="0.0273" style="stop-color:#FF1C0B"/>
			<stop  offset="0.1094" style="stop-color:#FF6D2B"/>
			<stop  offset="0.1471" style="stop-color:#FF8D37"/>
			<stop  offset="0.1582" style="stop-color:#FF9637"/>
			<stop  offset="0.2329" style="stop-color:#FFCF38"/>
			<stop  offset="0.2884" style="stop-color:#FFF238"/>
			<stop  offset="0.3182" style="stop-color:#FFFF38"/>
			<stop  offset="0.3516" style="stop-color:#D6F138"/>
			<stop  offset="0.3965" style="stop-color:#A6E038"/>
			<stop  offset="0.4361" style="stop-color:#82D338"/>
			<stop  offset="0.4683" style="stop-color:#6DCC38"/>
			<stop  offset="0.4893" style="stop-color:#65C938"/>
			<stop  offset="0.5033" style="stop-color:#61C050"/>
			<stop  offset="0.5369" style="stop-color:#59AE85"/>
			<stop  offset="0.57" style="stop-color:#529FB1"/>
			<stop  offset="0.6016" style="stop-color:#4C93D3"/>
			<stop  offset="0.6315" style="stop-color:#488AEB"/>
			<stop  offset="0.659" style="stop-color:#4685FA"/>
			<stop  offset="0.6818" style="stop-color:#4583FF"/>
			<stop  offset="0.6956" style="stop-color:#4771F3"/>
			<stop  offset="0.7267" style="stop-color:#4C4FDD"/>
			<stop  offset="0.7584" style="stop-color:#4F34CB"/>
			<stop  offset="0.7905" style="stop-color:#5221BF"/>
			<stop  offset="0.8235" style="stop-color:#5416B7"/>
			<stop  offset="0.8583" style="stop-color:#5412B5"/>
			<stop  offset="0.8611" style="stop-color:#5C11B4"/>
			<stop  offset="0.8772" style="stop-color:#870DB2"/>
			<stop  offset="0.8942" style="stop-color:#AC09AF"/>
			<stop  offset="0.9118" style="stop-color:#CA06AD"/>
			<stop  offset="0.9303" style="stop-color:#E203AC"/>
			<stop  offset="0.9501" style="stop-color:#F201AB"/>
			<stop  offset="0.9719" style="stop-color:#FC00AA"/>
			<stop  offset="1" style="stop-color:#FF00AA"/>
		</linearGradient>
		<path style="fill:url(#SVGID_00000026875771388365792290000009391521710048701850_);" d="M645.89,368.98v24.39h84.68v-24.39
			H645.89z M726.75,389.55H649.7V372.8h77.05V389.55z"/>
		
			<linearGradient id="SVGID_00000091714742984036154770000010158815031274151337_" gradientUnits="userSpaceOnUse" x1="190.509" y1="426.9992" x2="551.0871" y2="426.9992">
			<stop  offset="0" style="stop-color:#FF0000"/>
			<stop  offset="0.0273" style="stop-color:#FF1C0B"/>
			<stop  offset="0.1094" style="stop-color:#FF6D2B"/>
			<stop  offset="0.1471" style="stop-color:#FF8D37"/>
			<stop  offset="0.1582" style="stop-color:#FF9637"/>
			<stop  offset="0.2329" style="stop-color:#FFCF38"/>
			<stop  offset="0.2884" style="stop-color:#FFF238"/>
			<stop  offset="0.3182" style="stop-color:#FFFF38"/>
			<stop  offset="0.3516" style="stop-color:#D6F138"/>
			<stop  offset="0.3965" style="stop-color:#A6E038"/>
			<stop  offset="0.4361" style="stop-color:#82D338"/>
			<stop  offset="0.4683" style="stop-color:#6DCC38"/>
			<stop  offset="0.4893" style="stop-color:#65C938"/>
			<stop  offset="0.5033" style="stop-color:#61C050"/>
			<stop  offset="0.5369" style="stop-color:#59AE85"/>
			<stop  offset="0.57" style="stop-color:#529FB1"/>
			<stop  offset="0.6016" style="stop-color:#4C93D3"/>
			<stop  offset="0.6315" style="stop-color:#488AEB"/>
			<stop  offset="0.659" style="stop-color:#4685FA"/>
			<stop  offset="0.6818" style="stop-color:#4583FF"/>
			<stop  offset="0.6956" style="stop-color:#4771F3"/>
			<stop  offset="0.7267" style="stop-color:#4C4FDD"/>
			<stop  offset="0.7584" style="stop-color:#4F34CB"/>
			<stop  offset="0.7905" style="stop-color:#5221BF"/>
			<stop  offset="0.8235" style="stop-color:#5416B7"/>
			<stop  offset="0.8583" style="stop-color:#5412B5"/>
			<stop  offset="0.8611" style="stop-color:#5C11B4"/>
			<stop  offset="0.8772" style="stop-color:#870DB2"/>
			<stop  offset="0.8942" style="stop-color:#AC09AF"/>
			<stop  offset="0.9118" style="stop-color:#CA06AD"/>
			<stop  offset="0.9303" style="stop-color:#E203AC"/>
			<stop  offset="0.9501" style="stop-color:#F201AB"/>
			<stop  offset="0.9719" style="stop-color:#FC00AA"/>
			<stop  offset="1" style="stop-color:#FF00AA"/>
		</linearGradient>
		<path style="fill:url(#SVGID_00000091714742984036154770000010158815031274151337_);" d="M670.27,424.64h37.79l17.55-16.1v-8.29
			h-79.73v53.5h84.68v-24.39h-60.3V424.64z M726.75,433.18v16.76H649.7v-45.86h72.1v2.79l-15.22,13.96h-40.13v12.35H726.75z"/>
		<path class="st7" d="M563.8,370.16h-6.01v82.48h21.85v-34.48c0-0.35,0.28-0.63,0.62-0.63c3.9,0,15.52,0,15.52,0h0.64v-14.37
			l-32.43-32.81L563.8,370.16z M595.15,416.26c-2.48,0-11.54,0.01-14.89,0c-1.04,0-1.89,0.85-1.89,1.9v33.2h-19.31v-79.93h4.21
			l31.87,32.25V416.26z"/>
		<path class="st7" d="M617.37,404.69c0,0.32-0.26,0.58-0.57,0.58c-3.85,0-15.57,0-15.57,0h-0.64v14.37l32.43,32.82l0.19,0.19h6.01
			v-82.48h-21.85V404.69z M618.65,404.69v-33.25h19.31v79.93h-4.21l-31.87-32.25v-12.57c2.49,0,11.63-0.01,14.94,0
			C617.82,406.55,618.65,405.71,618.65,404.69z"/>
		<path class="st7" d="M647.06,370.08v21.93h82.17v-21.93H647.06z M727.96,390.74h-79.63v-19.38h79.63V390.74z"/>
		<path class="st7" d="M668.91,423.42h38.59l16.78-15.45v-6.48h-77.22l0,51.17h82.17v-21.93h-60.32V423.42z M727.96,431.99v19.38
			h-79.63v-48.61h74.67v4.64l-16,14.74h-39.36v9.85H727.96z"/>
		<g>
			
				<linearGradient id="SVGID_00000047765604681555761080000003375373712465437319_" gradientUnits="userSpaceOnUse" x1="190.509" y1="381.1733" x2="551.0871" y2="381.1733">
				<stop  offset="0" style="stop-color:#FF0000"/>
				<stop  offset="0.0273" style="stop-color:#FF1C0B"/>
				<stop  offset="0.1094" style="stop-color:#FF6D2B"/>
				<stop  offset="0.1471" style="stop-color:#FF8D37"/>
				<stop  offset="0.1582" style="stop-color:#FF9637"/>
				<stop  offset="0.2329" style="stop-color:#FFCF38"/>
				<stop  offset="0.2884" style="stop-color:#FFF238"/>
				<stop  offset="0.3182" style="stop-color:#FFFF38"/>
				<stop  offset="0.3516" style="stop-color:#D6F138"/>
				<stop  offset="0.3965" style="stop-color:#A6E038"/>
				<stop  offset="0.4361" style="stop-color:#82D338"/>
				<stop  offset="0.4683" style="stop-color:#6DCC38"/>
				<stop  offset="0.4893" style="stop-color:#65C938"/>
				<stop  offset="0.5033" style="stop-color:#61C050"/>
				<stop  offset="0.5369" style="stop-color:#59AE85"/>
				<stop  offset="0.57" style="stop-color:#529FB1"/>
				<stop  offset="0.6016" style="stop-color:#4C93D3"/>
				<stop  offset="0.6315" style="stop-color:#488AEB"/>
				<stop  offset="0.659" style="stop-color:#4685FA"/>
				<stop  offset="0.6818" style="stop-color:#4583FF"/>
				<stop  offset="0.6956" style="stop-color:#4771F3"/>
				<stop  offset="0.7267" style="stop-color:#4C4FDD"/>
				<stop  offset="0.7584" style="stop-color:#4F34CB"/>
				<stop  offset="0.7905" style="stop-color:#5221BF"/>
				<stop  offset="0.8235" style="stop-color:#5416B7"/>
				<stop  offset="0.8583" style="stop-color:#5412B5"/>
				<stop  offset="0.8611" style="stop-color:#5C11B4"/>
				<stop  offset="0.8772" style="stop-color:#870DB2"/>
				<stop  offset="0.8942" style="stop-color:#AC09AF"/>
				<stop  offset="0.9118" style="stop-color:#CA06AD"/>
				<stop  offset="0.9303" style="stop-color:#E203AC"/>
				<stop  offset="0.9501" style="stop-color:#F201AB"/>
				<stop  offset="0.9719" style="stop-color:#FC00AA"/>
				<stop  offset="1" style="stop-color:#FF00AA"/>
			</linearGradient>
			<path style="fill:url(#SVGID_00000047765604681555761080000003375373712465437319_);" d="M119.43,393.37h84.68v-24.39h-84.68
				V393.37z M123.25,372.8h77.05v16.76h-77.05V372.8z"/>
			
				<linearGradient id="SVGID_00000140011385626298117960000003748140610630127279_" gradientUnits="userSpaceOnUse" x1="190.509" y1="411.4055" x2="551.0871" y2="411.4055">
				<stop  offset="0" style="stop-color:#FF0000"/>
				<stop  offset="0.0273" style="stop-color:#FF1C0B"/>
				<stop  offset="0.1094" style="stop-color:#FF6D2B"/>
				<stop  offset="0.1471" style="stop-color:#FF8D37"/>
				<stop  offset="0.1582" style="stop-color:#FF9637"/>
				<stop  offset="0.2329" style="stop-color:#FFCF38"/>
				<stop  offset="0.2884" style="stop-color:#FFF238"/>
				<stop  offset="0.3182" style="stop-color:#FFFF38"/>
				<stop  offset="0.3516" style="stop-color:#D6F138"/>
				<stop  offset="0.3965" style="stop-color:#A6E038"/>
				<stop  offset="0.4361" style="stop-color:#82D338"/>
				<stop  offset="0.4683" style="stop-color:#6DCC38"/>
				<stop  offset="0.4893" style="stop-color:#65C938"/>
				<stop  offset="0.5033" style="stop-color:#61C050"/>
				<stop  offset="0.5369" style="stop-color:#59AE85"/>
				<stop  offset="0.57" style="stop-color:#529FB1"/>
				<stop  offset="0.6016" style="stop-color:#4C93D3"/>
				<stop  offset="0.6315" style="stop-color:#488AEB"/>
				<stop  offset="0.659" style="stop-color:#4685FA"/>
				<stop  offset="0.6818" style="stop-color:#4583FF"/>
				<stop  offset="0.6956" style="stop-color:#4771F3"/>
				<stop  offset="0.7267" style="stop-color:#4C4FDD"/>
				<stop  offset="0.7584" style="stop-color:#4F34CB"/>
				<stop  offset="0.7905" style="stop-color:#5221BF"/>
				<stop  offset="0.8235" style="stop-color:#5416B7"/>
				<stop  offset="0.8583" style="stop-color:#5412B5"/>
				<stop  offset="0.8611" style="stop-color:#5C11B4"/>
				<stop  offset="0.8772" style="stop-color:#870DB2"/>
				<stop  offset="0.8942" style="stop-color:#AC09AF"/>
				<stop  offset="0.9118" style="stop-color:#CA06AD"/>
				<stop  offset="0.9303" style="stop-color:#E203AC"/>
				<stop  offset="0.9501" style="stop-color:#F201AB"/>
				<stop  offset="0.9719" style="stop-color:#FC00AA"/>
				<stop  offset="1" style="stop-color:#FF00AA"/>
			</linearGradient>
			<path style="fill:url(#SVGID_00000140011385626298117960000003748140610630127279_);" d="M291.31,369.06v84.68h24.39v-34.96
				c4.4,0,14.87,0,14.87,0l1.91,0v-16.11l-33.35-33.62H291.31z M328.65,414.97c-3.46,0-10.7,0-13.61,0c0,0,0,0,0,0
				c-0.85,0-1.64,0.33-2.24,0.93c-0.6,0.6-0.92,1.39-0.92,2.24v31.79h-16.76v-77.05h2.41l31.12,31.37V414.97z"/>
			
				<linearGradient id="SVGID_00000047052405949405355220000005423135775207844505_" gradientUnits="userSpaceOnUse" x1="190.509" y1="411.4055" x2="551.0871" y2="411.4055">
				<stop  offset="0" style="stop-color:#FF0000"/>
				<stop  offset="0.0273" style="stop-color:#FF1C0B"/>
				<stop  offset="0.1094" style="stop-color:#FF6D2B"/>
				<stop  offset="0.1471" style="stop-color:#FF8D37"/>
				<stop  offset="0.1582" style="stop-color:#FF9637"/>
				<stop  offset="0.2329" style="stop-color:#FFCF38"/>
				<stop  offset="0.2884" style="stop-color:#FFF238"/>
				<stop  offset="0.3182" style="stop-color:#FFFF38"/>
				<stop  offset="0.3516" style="stop-color:#D6F138"/>
				<stop  offset="0.3965" style="stop-color:#A6E038"/>
				<stop  offset="0.4361" style="stop-color:#82D338"/>
				<stop  offset="0.4683" style="stop-color:#6DCC38"/>
				<stop  offset="0.4893" style="stop-color:#65C938"/>
				<stop  offset="0.5033" style="stop-color:#61C050"/>
				<stop  offset="0.5369" style="stop-color:#59AE85"/>
				<stop  offset="0.57" style="stop-color:#529FB1"/>
				<stop  offset="0.6016" style="stop-color:#4C93D3"/>
				<stop  offset="0.6315" style="stop-color:#488AEB"/>
				<stop  offset="0.659" style="stop-color:#4685FA"/>
				<stop  offset="0.6818" style="stop-color:#4583FF"/>
				<stop  offset="0.6956" style="stop-color:#4771F3"/>
				<stop  offset="0.7267" style="stop-color:#4C4FDD"/>
				<stop  offset="0.7584" style="stop-color:#4F34CB"/>
				<stop  offset="0.7905" style="stop-color:#5221BF"/>
				<stop  offset="0.8235" style="stop-color:#5416B7"/>
				<stop  offset="0.8583" style="stop-color:#5412B5"/>
				<stop  offset="0.8611" style="stop-color:#5C11B4"/>
				<stop  offset="0.8772" style="stop-color:#870DB2"/>
				<stop  offset="0.8942" style="stop-color:#AC09AF"/>
				<stop  offset="0.9118" style="stop-color:#CA06AD"/>
				<stop  offset="0.9303" style="stop-color:#E203AC"/>
				<stop  offset="0.9501" style="stop-color:#F201AB"/>
				<stop  offset="0.9719" style="stop-color:#FC00AA"/>
				<stop  offset="1" style="stop-color:#FF00AA"/>
			</linearGradient>
			<path style="fill:url(#SVGID_00000047052405949405355220000005423135775207844505_);" d="M350.87,404.02c-4.4,0-14.87,0-14.86,0
				l-1.91,0v16.11l33.35,33.62h7.81v-84.68h-24.39V404.02z M351.57,407.84c0.83,0,1.62-0.33,2.2-0.92c0.58-0.59,0.91-1.37,0.91-2.2
				v-31.84h16.76v77.05h-2.41l-31.12-31.37v-10.72C341.4,407.84,348.69,407.84,351.57,407.84
				C351.57,407.84,351.57,407.84,351.57,407.84z"/>
			
				<linearGradient id="SVGID_00000120531439334746171430000016203051264910178176_" gradientUnits="userSpaceOnUse" x1="190.509" y1="390.0105" x2="551.0871" y2="390.0105">
				<stop  offset="0" style="stop-color:#FF0000"/>
				<stop  offset="0.0273" style="stop-color:#FF1C0B"/>
				<stop  offset="0.1094" style="stop-color:#FF6D2B"/>
				<stop  offset="0.1471" style="stop-color:#FF8D37"/>
				<stop  offset="0.1582" style="stop-color:#FF9637"/>
				<stop  offset="0.2329" style="stop-color:#FFCF38"/>
				<stop  offset="0.2884" style="stop-color:#FFF238"/>
				<stop  offset="0.3182" style="stop-color:#FFFF38"/>
				<stop  offset="0.3516" style="stop-color:#D6F138"/>
				<stop  offset="0.3965" style="stop-color:#A6E038"/>
				<stop  offset="0.4361" style="stop-color:#82D338"/>
				<stop  offset="0.4683" style="stop-color:#6DCC38"/>
				<stop  offset="0.4893" style="stop-color:#65C938"/>
				<stop  offset="0.5033" style="stop-color:#61C050"/>
				<stop  offset="0.5369" style="stop-color:#59AE85"/>
				<stop  offset="0.57" style="stop-color:#529FB1"/>
				<stop  offset="0.6016" style="stop-color:#4C93D3"/>
				<stop  offset="0.6315" style="stop-color:#488AEB"/>
				<stop  offset="0.659" style="stop-color:#4685FA"/>
				<stop  offset="0.6818" style="stop-color:#4583FF"/>
				<stop  offset="0.6956" style="stop-color:#4771F3"/>
				<stop  offset="0.7267" style="stop-color:#4C4FDD"/>
				<stop  offset="0.7584" style="stop-color:#4F34CB"/>
				<stop  offset="0.7905" style="stop-color:#5221BF"/>
				<stop  offset="0.8235" style="stop-color:#5416B7"/>
				<stop  offset="0.8583" style="stop-color:#5412B5"/>
				<stop  offset="0.8611" style="stop-color:#5C11B4"/>
				<stop  offset="0.8772" style="stop-color:#870DB2"/>
				<stop  offset="0.8942" style="stop-color:#AC09AF"/>
				<stop  offset="0.9118" style="stop-color:#CA06AD"/>
				<stop  offset="0.9303" style="stop-color:#E203AC"/>
				<stop  offset="0.9501" style="stop-color:#F201AB"/>
				<stop  offset="0.9719" style="stop-color:#FC00AA"/>
				<stop  offset="1" style="stop-color:#FF00AA"/>
			</linearGradient>
			<path style="fill:url(#SVGID_00000120531439334746171430000016203051264910178176_);" d="M379.94,393.82h34.96
				c0,4.4,0,14.87,0,14.87l0,1.91h16.11l33.61-33.35v-7.81h-84.68V393.82z M383.76,373.25h77.05v2.41l-31.37,31.12h-10.72
				c0-3.46,0-10.69,0-13.61c0-0.85-0.33-1.64-0.93-2.24c-0.6-0.6-1.39-0.92-2.24-0.92h-31.79V373.25z"/>
			
				<linearGradient id="SVGID_00000058572944848922440570000008938542756879360906_" gradientUnits="userSpaceOnUse" x1="190.509" y1="432.8003" x2="551.0871" y2="432.8003">
				<stop  offset="0" style="stop-color:#FF0000"/>
				<stop  offset="0.0273" style="stop-color:#FF1C0B"/>
				<stop  offset="0.1094" style="stop-color:#FF6D2B"/>
				<stop  offset="0.1471" style="stop-color:#FF8D37"/>
				<stop  offset="0.1582" style="stop-color:#FF9637"/>
				<stop  offset="0.2329" style="stop-color:#FFCF38"/>
				<stop  offset="0.2884" style="stop-color:#FFF238"/>
				<stop  offset="0.3182" style="stop-color:#FFFF38"/>
				<stop  offset="0.3516" style="stop-color:#D6F138"/>
				<stop  offset="0.3965" style="stop-color:#A6E038"/>
				<stop  offset="0.4361" style="stop-color:#82D338"/>
				<stop  offset="0.4683" style="stop-color:#6DCC38"/>
				<stop  offset="0.4893" style="stop-color:#65C938"/>
				<stop  offset="0.5033" style="stop-color:#61C050"/>
				<stop  offset="0.5369" style="stop-color:#59AE85"/>
				<stop  offset="0.57" style="stop-color:#529FB1"/>
				<stop  offset="0.6016" style="stop-color:#4C93D3"/>
				<stop  offset="0.6315" style="stop-color:#488AEB"/>
				<stop  offset="0.659" style="stop-color:#4685FA"/>
				<stop  offset="0.6818" style="stop-color:#4583FF"/>
				<stop  offset="0.6956" style="stop-color:#4771F3"/>
				<stop  offset="0.7267" style="stop-color:#4C4FDD"/>
				<stop  offset="0.7584" style="stop-color:#4F34CB"/>
				<stop  offset="0.7905" style="stop-color:#5221BF"/>
				<stop  offset="0.8235" style="stop-color:#5416B7"/>
				<stop  offset="0.8583" style="stop-color:#5412B5"/>
				<stop  offset="0.8611" style="stop-color:#5C11B4"/>
				<stop  offset="0.8772" style="stop-color:#870DB2"/>
				<stop  offset="0.8942" style="stop-color:#AC09AF"/>
				<stop  offset="0.9118" style="stop-color:#CA06AD"/>
				<stop  offset="0.9303" style="stop-color:#E203AC"/>
				<stop  offset="0.9501" style="stop-color:#F201AB"/>
				<stop  offset="0.9719" style="stop-color:#FC00AA"/>
				<stop  offset="1" style="stop-color:#FF00AA"/>
			</linearGradient>
			<path style="fill:url(#SVGID_00000058572944848922440570000008938542756879360906_);" d="M429.66,414.13l0-1.91h-16.11
				l-33.62,33.35v7.81h84.68v-24.39h-34.96C429.67,424.6,429.66,414.13,429.66,414.13z M460.81,432.81v16.76h-77.05v-2.41
				l31.37-31.12h10.72c0,3.48,0,10.78,0,13.66c0,1.72,1.4,3.11,3.12,3.11H460.81z"/>
			
				<linearGradient id="SVGID_00000070089094684255281750000003425766928596158359_" gradientUnits="userSpaceOnUse" x1="190.509" y1="411.4055" x2="551.0871" y2="411.4055">
				<stop  offset="0" style="stop-color:#FF0000"/>
				<stop  offset="0.0273" style="stop-color:#FF1C0B"/>
				<stop  offset="0.1094" style="stop-color:#FF6D2B"/>
				<stop  offset="0.1471" style="stop-color:#FF8D37"/>
				<stop  offset="0.1582" style="stop-color:#FF9637"/>
				<stop  offset="0.2329" style="stop-color:#FFCF38"/>
				<stop  offset="0.2884" style="stop-color:#FFF238"/>
				<stop  offset="0.3182" style="stop-color:#FFFF38"/>
				<stop  offset="0.3516" style="stop-color:#D6F138"/>
				<stop  offset="0.3965" style="stop-color:#A6E038"/>
				<stop  offset="0.4361" style="stop-color:#82D338"/>
				<stop  offset="0.4683" style="stop-color:#6DCC38"/>
				<stop  offset="0.4893" style="stop-color:#65C938"/>
				<stop  offset="0.5033" style="stop-color:#61C050"/>
				<stop  offset="0.5369" style="stop-color:#59AE85"/>
				<stop  offset="0.57" style="stop-color:#529FB1"/>
				<stop  offset="0.6016" style="stop-color:#4C93D3"/>
				<stop  offset="0.6315" style="stop-color:#488AEB"/>
				<stop  offset="0.659" style="stop-color:#4685FA"/>
				<stop  offset="0.6818" style="stop-color:#4583FF"/>
				<stop  offset="0.6956" style="stop-color:#4771F3"/>
				<stop  offset="0.7267" style="stop-color:#4C4FDD"/>
				<stop  offset="0.7584" style="stop-color:#4F34CB"/>
				<stop  offset="0.7905" style="stop-color:#5221BF"/>
				<stop  offset="0.8235" style="stop-color:#5416B7"/>
				<stop  offset="0.8583" style="stop-color:#5412B5"/>
				<stop  offset="0.8611" style="stop-color:#5C11B4"/>
				<stop  offset="0.8772" style="stop-color:#870DB2"/>
				<stop  offset="0.8942" style="stop-color:#AC09AF"/>
				<stop  offset="0.9118" style="stop-color:#CA06AD"/>
				<stop  offset="0.9303" style="stop-color:#E203AC"/>
				<stop  offset="0.9501" style="stop-color:#F201AB"/>
				<stop  offset="0.9719" style="stop-color:#FC00AA"/>
				<stop  offset="1" style="stop-color:#FF00AA"/>
			</linearGradient>
			<path style="fill:url(#SVGID_00000070089094684255281750000003425766928596158359_);" d="M262.91,426.35
				c0,1.66-1.35,3.01-3.01,3.01h-24.23c-1.66,0-3.01-1.35-3.01-3.01v-57.29h-24.39v62.2c0,12.4,10.08,22.48,22.48,22.48h34.06
				c12.4,0,22.48-10.08,22.48-22.48v-62.2h-24.39V426.35z M266.73,426.35v-53.47h16.76v58.39c0,10.29-8.37,18.66-18.66,18.66h-34.06
				c-10.29,0-18.66-8.37-18.66-18.66v-58.39h16.76v53.47c0,3.76,3.06,6.82,6.82,6.82h24.23
				C263.67,433.18,266.73,430.12,266.73,426.35z"/>
			
				<linearGradient id="SVGID_00000043450065544095173850000012464604181025459888_" gradientUnits="userSpaceOnUse" x1="190.509" y1="426.9992" x2="551.0871" y2="426.9992">
				<stop  offset="0" style="stop-color:#FF0000"/>
				<stop  offset="0.0273" style="stop-color:#FF1C0B"/>
				<stop  offset="0.1094" style="stop-color:#FF6D2B"/>
				<stop  offset="0.1471" style="stop-color:#FF8D37"/>
				<stop  offset="0.1582" style="stop-color:#FF9637"/>
				<stop  offset="0.2329" style="stop-color:#FFCF38"/>
				<stop  offset="0.2884" style="stop-color:#FFF238"/>
				<stop  offset="0.3182" style="stop-color:#FFFF38"/>
				<stop  offset="0.3516" style="stop-color:#D6F138"/>
				<stop  offset="0.3965" style="stop-color:#A6E038"/>
				<stop  offset="0.4361" style="stop-color:#82D338"/>
				<stop  offset="0.4683" style="stop-color:#6DCC38"/>
				<stop  offset="0.4893" style="stop-color:#65C938"/>
				<stop  offset="0.5033" style="stop-color:#61C050"/>
				<stop  offset="0.5369" style="stop-color:#59AE85"/>
				<stop  offset="0.57" style="stop-color:#529FB1"/>
				<stop  offset="0.6016" style="stop-color:#4C93D3"/>
				<stop  offset="0.6315" style="stop-color:#488AEB"/>
				<stop  offset="0.659" style="stop-color:#4685FA"/>
				<stop  offset="0.6818" style="stop-color:#4583FF"/>
				<stop  offset="0.6956" style="stop-color:#4771F3"/>
				<stop  offset="0.7267" style="stop-color:#4C4FDD"/>
				<stop  offset="0.7584" style="stop-color:#4F34CB"/>
				<stop  offset="0.7905" style="stop-color:#5221BF"/>
				<stop  offset="0.8235" style="stop-color:#5416B7"/>
				<stop  offset="0.8583" style="stop-color:#5412B5"/>
				<stop  offset="0.8611" style="stop-color:#5C11B4"/>
				<stop  offset="0.8772" style="stop-color:#870DB2"/>
				<stop  offset="0.8942" style="stop-color:#AC09AF"/>
				<stop  offset="0.9118" style="stop-color:#CA06AD"/>
				<stop  offset="0.9303" style="stop-color:#E203AC"/>
				<stop  offset="0.9501" style="stop-color:#F201AB"/>
				<stop  offset="0.9719" style="stop-color:#FC00AA"/>
				<stop  offset="1" style="stop-color:#FF00AA"/>
			</linearGradient>
			<path style="fill:url(#SVGID_00000043450065544095173850000012464604181025459888_);" d="M119.43,453.75h24.39v-29.11h37.79
				l17.55-16.1v-8.29h-79.73V453.75z M123.25,404.07h72.1v2.79l-15.22,13.96H140v29.11h-16.76V404.07z"/>
			<path class="st7" d="M120.4,392.01h82.17v-21.93H120.4V392.01z M121.67,371.36h79.63v19.38h-79.63V371.36z"/>
			<path class="st7" d="M292.34,370.16v82.48h21.85v-34.48c0-0.35,0.28-0.63,0.62-0.63c3.9,0,15.52,0,15.52,0h0.64v-14.37l-32.62-33
				H292.34z M329.7,416.26c-2.48,0-11.54,0-14.89,0c-1.04,0-1.89,0.85-1.89,1.9v33.2h-19.31v-79.93h4.21l31.87,32.25V416.26z"/>
			<path class="st7" d="M351.93,404.69c0,0.32-0.26,0.58-0.57,0.58c-3.85,0-15.57,0-15.57,0h-0.64v14.37l32.62,33h6.01v-82.48
				h-21.85V404.69z M353.2,404.69v-33.25h19.31v79.93h-4.21l-31.87-32.25v-12.57c2.49,0,11.63-0.01,14.94,0
				C352.37,406.55,353.2,405.71,353.2,404.69z"/>
			<path class="st7" d="M381.01,392.47h34.35c0.17,0,0.32,0.06,0.44,0.18c0.12,0.12,0.18,0.27,0.18,0.44c0,3.91,0,15.58,0,15.58
				l0,0.64h14.32l32.69-32.55l0.19-0.19v-6.04h-82.17V392.47z M382.28,371.81h79.63v4.23l-32.13,32h-12.52c0-2.49,0-11.58,0-14.94
				c0-0.51-0.2-0.99-0.56-1.35c-0.36-0.36-0.83-0.55-1.34-0.55h-33.08V371.81z"/>
			<path class="st7" d="M428.38,430.18c-0.11-0.11-0.17-0.25-0.17-0.4c0-3.86,0-15.63,0-15.63l0-0.64h-14.32l-32.69,32.55
				l-0.19,0.19v6.04h82.17v-21.94h-34.4C428.63,430.34,428.49,430.28,428.38,430.18z M461.91,451h-79.63v-4.23l32.13-32h12.52
				c0,2.5,0,11.67,0,14.99c0,0.5,0.19,0.96,0.54,1.31c0.35,0.35,0.81,0.54,1.3,0.54h33.13V451z"/>
			<path class="st7" d="M263.94,426.42c0,2.37-1.92,4.3-4.28,4.3h-24.24c-2.36,0-4.28-1.93-4.28-4.3v-56.25h-21.85v61.19
				c0,11.74,9.52,21.3,21.22,21.3h34.07c11.7,0,21.22-9.55,21.22-21.3v-61.19h-21.85V426.42z M265.21,371.44h19.31v59.91
				c0,11.04-8.95,20.02-19.94,20.02H230.5c-11,0-19.94-8.98-19.94-20.02v-59.91h19.31v54.97c0,3.07,2.49,5.57,5.55,5.57h24.24
				c3.06,0,5.55-2.5,5.55-5.57V371.44z"/>
			<path class="st7" d="M120.4,452.65h21.85v-29.23h38.59l16.78-15.45v-6.48H120.4V452.65z M121.67,402.76h74.67v4.64l-16,14.74
				h-39.36v29.23h-19.31V402.76z"/>
		</g>
		<g>
			
				<linearGradient id="SVGID_00000068648995141229767330000017635359957282092438_" gradientUnits="userSpaceOnUse" x1="190.509" y1="407.4212" x2="551.0871" y2="407.4212">
				<stop  offset="0" style="stop-color:#FF0000"/>
				<stop  offset="0.0273" style="stop-color:#FF1C0B"/>
				<stop  offset="0.1094" style="stop-color:#FF6D2B"/>
				<stop  offset="0.1471" style="stop-color:#FF8D37"/>
				<stop  offset="0.1582" style="stop-color:#FF9637"/>
				<stop  offset="0.2329" style="stop-color:#FFCF38"/>
				<stop  offset="0.2884" style="stop-color:#FFF238"/>
				<stop  offset="0.3182" style="stop-color:#FFFF38"/>
				<stop  offset="0.3516" style="stop-color:#D6F138"/>
				<stop  offset="0.3965" style="stop-color:#A6E038"/>
				<stop  offset="0.4361" style="stop-color:#82D338"/>
				<stop  offset="0.4683" style="stop-color:#6DCC38"/>
				<stop  offset="0.4893" style="stop-color:#65C938"/>
				<stop  offset="0.5033" style="stop-color:#61C050"/>
				<stop  offset="0.5369" style="stop-color:#59AE85"/>
				<stop  offset="0.57" style="stop-color:#529FB1"/>
				<stop  offset="0.6016" style="stop-color:#4C93D3"/>
				<stop  offset="0.6315" style="stop-color:#488AEB"/>
				<stop  offset="0.659" style="stop-color:#4685FA"/>
				<stop  offset="0.6818" style="stop-color:#4583FF"/>
				<stop  offset="0.6956" style="stop-color:#4771F3"/>
				<stop  offset="0.7267" style="stop-color:#4C4FDD"/>
				<stop  offset="0.7584" style="stop-color:#4F34CB"/>
				<stop  offset="0.7905" style="stop-color:#5221BF"/>
				<stop  offset="0.8235" style="stop-color:#5416B7"/>
				<stop  offset="0.8583" style="stop-color:#5412B5"/>
				<stop  offset="0.8611" style="stop-color:#5C11B4"/>
				<stop  offset="0.8772" style="stop-color:#870DB2"/>
				<stop  offset="0.8942" style="stop-color:#AC09AF"/>
				<stop  offset="0.9118" style="stop-color:#CA06AD"/>
				<stop  offset="0.9303" style="stop-color:#E203AC"/>
				<stop  offset="0.9501" style="stop-color:#F201AB"/>
				<stop  offset="0.9719" style="stop-color:#FC00AA"/>
				<stop  offset="1" style="stop-color:#FF00AA"/>
			</linearGradient>
			<path style="fill:url(#SVGID_00000068648995141229767330000017635359957282092438_);" d="M545.84,405.14h-2.18v-4.16
				c0-3.29-2.67-5.96-5.96-5.96h-0.42c-0.1-0.22-0.28-0.41-0.53-0.51c-0.45-0.18-9.34-3.66-20.71-4.85v-2.87
				c0-1.12-0.91-2.03-2.03-2.03h-10.1c-1.12,0-2.03,0.91-2.03,2.03v2.87c-11.37,1.2-20.26,4.67-20.71,4.85
				c-0.25,0.1-0.43,0.29-0.53,0.51h-0.42c-3.29,0-5.96,2.67-5.96,5.96v4.16h-2.18c-1.61,0-2.93,1.31-2.93,2.93v11.04
				c0,1.61,1.31,2.93,2.93,2.93h2.18v2.1c0,3.29,2.67,5.96,5.96,5.96h23.63v-5.59c0-0.53,0.43-0.97,0.97-0.97h8.28
				c0.53,0,0.97,0.43,0.97,0.97v5.59h23.63c3.29,0,5.96-2.67,5.96-5.96v-2.1h2.18c1.61,0,2.93-1.31,2.93-2.93v-11.04
				C548.77,406.45,547.46,405.14,545.84,405.14z M474.26,420.07h-2.17c-0.53,0-0.97-0.44-0.97-0.97v-11.04
				c0-0.53,0.43-0.97,0.97-0.97h2.17V420.07z M503.84,386.79c0-0.04,0.03-0.08,0.08-0.08h10.1c0.04,0,0.08,0.03,0.08,0.08v2.28
				h-10.25V386.79z M508.97,391.21c9.5,0.05,18.37,2.31,23.23,3.81h-46.45C490.59,393.52,499.46,391.26,508.97,391.21z
				 M541.71,424.13c0,2.21-1.8,4-4,4h-21.68v-3.63c0-1.61-1.31-2.92-2.92-2.92h-8.28c-1.61,0-2.92,1.31-2.92,2.92v3.63h-21.68
				c-2.21,0-4-1.8-4-4v-23.15c0-2.21,1.8-4,4-4h57.48c2.21,0,4,1.8,4,4V424.13z M546.81,419.1c0,0.53-0.44,0.97-0.97,0.97h-2.17
				v-12.98h2.17c0.53,0,0.97,0.44,0.97,0.97V419.1z"/>
			<path class="st7" d="M489.09,399.96h-5.64c-1.75,0-3.18,1.43-3.18,3.18v3.39c0,0.54,0.44,0.98,0.98,0.98
				c0.54,0,0.98-0.44,0.98-0.98v-3.39c0-0.67,0.55-1.22,1.22-1.22h5.64c0.54,0,0.98-0.44,0.98-0.98S489.63,399.96,489.09,399.96z"/>
			<path class="st7" d="M481.25,408.77c-0.54,0-0.98,0.44-0.98,0.98v2.83c0,0.54,0.44,0.98,0.98,0.98c0.54,0,0.98-0.44,0.98-0.98
				v-2.83C482.23,409.21,481.79,408.77,481.25,408.77z"/>
		</g>
		<path class="st7" d="M509.12,370.1c-22.69,0-41.15,18.53-41.15,41.31c0,22.78,18.46,41.31,41.15,41.31
			c22.69,0,41.15-18.53,41.15-41.31C550.27,388.63,531.81,370.1,509.12,370.1z M509.12,451.44c-21.99,0-39.88-17.96-39.88-40.03
			c0-22.07,17.89-40.03,39.88-40.03S549,389.33,549,411.41C549,433.48,531.11,451.44,509.12,451.44z"/>
	</g>
</g>
</svg>
